<svg id="SvgjsSvg1013" width="288" height="288" xmlns="http://www.w3.org/2000/svg" version="1.1" xmlns:xlink="http://www.w3.org/1999/xlink" xmlns:svgjs="http://svgjs.com/svgjs"><defs id="SvgjsDefs1014"></defs><g id="SvgjsG1015"><svg xmlns="http://www.w3.org/2000/svg" version="1.0" viewBox="0 0 64 64" width="288" height="288"><g transform="matrix(.1 0 0 -.1 0 64)" fill="#9a9a9b" class="color000 svgShape"><path d="M162 568c2-48 7-63 18-63 8 0 17 12 20 28l5 28 35-30c19-17 41-30 48-31 18 0 15 27-5 39-13 7 21 10 117 10 118 0 133-1 116-14-17-13-15-35 4-35 5 0 22 11 38 25 36 30 40 31 44 3 2-12 9-23 16-26 9-3 12 14 12 62 0 52-3 66-15 66-10 0-15-10-15-26l0-26-34 26c-34 26-66 34-66 17 0-5 9-15 21-22 18-12 3-14-115-14-122 0-133 1-120 16 19 21 18 29-4 29-10 0-29-11-42-25-13-14-27-25-32-25-4 0-8 11-8 25 0 19-5 25-20 25-19 0-21-5-18-62zM177 462c-15-16-17-46-17-218 0-145 3-205 13-217 11-16 34-17 232-15l220 3 3 219c2 153-1 223-9 232-9 11-55 14-219 14-188 0-208-2-223-18zm427-18c3-9 6-102 6-207l0-192-97 97-98 98 95 95c52 52 91 98 87 102-4 4-50-35-102-87l-95-95-95 95c-52 52-95 98-95 102 0 5 87 8 194 8 168 0 195-2 200-16zm-215-206c-2-2-48-46-102-98l-97-95 0 200 0 200 102-102c56-56 100-104 97-105zm116-108l100-100-200 0-200 0 100 100c55 55 100 100 100 100 0 0 45-45 100-100zM42 407c-18-18-32-38-32-45 0-15 23-15 38 0 9 9 12-18 12-122-1-97-4-130-11-118-13 22-39 23-39 2 0-18 50-74 66-74 5 0 25 16 44 35 26 27 31 38 22 47-9 9-16 8-29-5-17-15-18-9-18 118 0 74 4 127 8 119 8-13 47-20 47-8 0 8-63 84-70 84-3 0-20-15-38-33z" fill="#9a9a9b" class="color000 svgShape"></path></g></svg></g></svg>