<svg id="SvgjsSvg1001" width="288" height="288" xmlns="http://www.w3.org/2000/svg" version="1.1" xmlns:xlink="http://www.w3.org/1999/xlink" xmlns:svgjs="http://svgjs.com/svgjs"><defs id="SvgjsDefs1002"></defs><g id="SvgjsG1008"><svg xmlns="http://www.w3.org/2000/svg" version="1.0" viewBox="0 0 74 74" width="288" height="288"><g transform="matrix(.1 0 0 -.1 0 74)" fill="#9a9a9b" class="color000 svgShape"><path d="M237 654 c-4 -4 -7 -49 -7 -100 0 -75 3 -93 16 -98 23 -9 247 -7 2622 9 6 12 34 10 103 l-3 94 -136 3 c-74 1 -138 -1 -142 -4z" fill="#9a9a9b" class="color000 svgShape"></path><path d="M32 488 c-7 -7 -12 -34 -12 -61 0 -40 4 -50 20 -54 16 -4 20 -15 22
-76 3 -66 1 -74 -25 -101 -26 -29 -34 -66 -21 -100 5 -14 46 -16 355 -16 l350
0 -3 103 -3 102 -44 3 c-24 2 -48 -1 -53 -6 -7 -7 -17 -3 -29 9 -15 15 -19 33
-19 84 l0 65 -195 0 -195 0 0 -69 c0 -52 -4 -70 -15 -75 -11 -4 -15 -21 -15
-67 0 -53 -2 -60 -15 -49 -8 7 -15 19 -15 26 0 8 -4 14 -10 14 -6 0 -10 31
-10 74 0 69 1 74 24 80 22 5 23 10 19 53 -3 27 -6 54 -8 61 -6 16 -87 16 -103
0z m508 -133 c0 -30 -4 -55 -10 -55 -5 0 -10 9 -10 20 0 18 -7 20 -65 20 -58
0 -65 -2 -65 -20 0 -11 -7 -20 -15 -20 -8 0 -15 9 -15 20 0 18 -7 20 -65 20
-58 0 -65 -2 -65 -20 0 -11 -4 -20 -10 -20 -5 0 -10 25 -10 55 l0 55 165 0
165 0 0 -55z m20 -130 l0 -35 -185 0 -185 0 0 35 0 35 185 0 185 0 0 -35z" fill="#9a9a9b" class="color000 svgShape"></path></g></svg></g></svg>